<svg xmlns="http://www.w3.org/2000/svg" xmlns:xlink="http://www.w3.org/1999/xlink" width="274.536" height="90.155" viewBox="0 0 274.536 90.155">
  <defs>
    <linearGradient id="linear-gradient" x1="0.294" y1="0.058" x2="0.534" y2="0.634" gradientUnits="objectBoundingBox">
      <stop offset="0.459" stop-color="#26a788"/>
      <stop offset="1" stop-color="#0da0ab"/>
    </linearGradient>
    <linearGradient id="linear-gradient-2" x1="0.843" y1="1.02" x2="0.44" y2="0.347" gradientUnits="objectBoundingBox">
      <stop offset="0.369" stop-color="#51ae60"/>
      <stop offset="1" stop-color="#75b42e"/>
    </linearGradient>
    <clipPath id="clip-path">
      <path id="Path_13" data-name="Path 13" d="M374.241,380.284a31.881,31.881,0,0,0-18.972-6.228,31.47,31.47,0,0,0-31.642,31.507,31,31,0,0,0,18.494,6.1A32.15,32.15,0,0,0,374.241,380.284Z" transform="translate(-323.627 -374.056)" fill="none" stroke="#61b14a" stroke-width="1"/>
    </clipPath>
  </defs>
  <g id="Group_9" data-name="Group 9" transform="translate(-210.421 -337.503)">
    <g id="Group_7" data-name="Group 7" transform="translate(210.421 337.503)">
      <g id="Group_1" data-name="Group 1" transform="translate(0 7.269)">
        <path id="Path_1" data-name="Path 1" d="M250.789,368.624a11.845,11.845,0,0,1-.858,4.509,11.348,11.348,0,0,1-2.383,3.675,10.97,10.97,0,0,1-3.679,2.475,12.163,12.163,0,0,1-4.745.9,10.741,10.741,0,0,1-4.863-1.109,10.464,10.464,0,0,1-3.7-3.052,10.51,10.51,0,0,1-8.544,4.161,11.936,11.936,0,0,1-4.712-.9,10.993,10.993,0,0,1-3.65-2.475,11.359,11.359,0,0,1-2.378-3.675,11.87,11.87,0,0,1-.854-4.509V347.54h6.1v21.132a5.841,5.841,0,0,0,.392,2.15,5.483,5.483,0,0,0,1.1,1.757,5.077,5.077,0,0,0,1.75,1.2,5.79,5.79,0,0,0,2.281.439,5.612,5.612,0,0,0,2.255-.439,5.127,5.127,0,0,0,1.728-1.2,5.483,5.483,0,0,0,1.1-1.757,5.826,5.826,0,0,0,.393-2.15V347.54h6.1v21.132a5.783,5.783,0,0,0,.395,2.15,5.47,5.47,0,0,0,1.114,1.757,5.242,5.242,0,0,0,1.719,1.2,5.535,5.535,0,0,0,2.252.439,5.715,5.715,0,0,0,2.276-.439,5.483,5.483,0,0,0,1.764-1.2,5.292,5.292,0,0,0,1.136-1.757,5.784,5.784,0,0,0,.4-2.15V347.54h2.4a3.708,3.708,0,0,1,3.708,3.707Z" transform="translate(-210.421 -347.54)" fill="#137f7a"/>
        <path id="Path_2" data-name="Path 2" d="M292.836,379.629h-6.1V365.711a7.893,7.893,0,0,0-.139-1.294,4.062,4.062,0,0,0-.6-1.5,3.867,3.867,0,0,0-1.348-1.225,4.733,4.733,0,0,0-2.369-.509,4.618,4.618,0,0,0-3.371,1.249,4.386,4.386,0,0,0-1.277,3.282v13.918h-6.1V347.54h2.413a3.707,3.707,0,0,1,3.707,3.69l.028,5.835a9.318,9.318,0,0,1,2.52-1.364,8.668,8.668,0,0,1,2.935-.486,10.133,10.133,0,0,1,3.978.763,8.874,8.874,0,0,1,3.074,2.128,9.435,9.435,0,0,1,1.966,3.306,12.73,12.73,0,0,1,.693,4.3Z" transform="translate(-227.269 -347.54)" fill="#137f7a"/>
      </g>
      <g id="Group_2" data-name="Group 2" transform="translate(69.002)">
        <path id="Path_3" data-name="Path 3" d="M350.335,363.759a31.879,31.879,0,0,1,18.972,6.228c0-.2.015-.393.015-.591A31.943,31.943,0,0,0,337.348,337.5,31.488,31.488,0,0,0,305.7,369.477a32.042,32.042,0,0,0,13,25.79A31.47,31.47,0,0,1,350.335,363.759Z" transform="translate(-305.695 -337.503)" fill="url(#linear-gradient)"/>
      </g>
      <g id="Group_4" data-name="Group 4" transform="translate(149.37 53.772)">
        <g id="Group_3" data-name="Group 3">
          <path id="Path_4" data-name="Path 4" d="M429.239,417.622a5.786,5.786,0,0,0-4.693.855,4.628,4.628,0,0,0-1.781,3.907v13.779h-6.1V422.384a12.033,12.033,0,0,1,.856-4.624,9.36,9.36,0,0,1,2.474-3.514,9.832,9.832,0,0,1,3.952-2.081,13.508,13.508,0,0,1,5.3-.277Z" transform="translate(-416.662 -411.749)" fill="#51ae60"/>
          <path id="Path_5" data-name="Path 5" d="M459.062,434.993a15.661,15.661,0,0,1-.856,5.335,11.227,11.227,0,0,1-2.45,4.04,10.769,10.769,0,0,1-3.885,2.563,14.84,14.84,0,0,1-9.27.3,12.081,12.081,0,0,1-3.466-1.687,10.646,10.646,0,0,1-2.589-2.612,8.358,8.358,0,0,1-1.388-3.422h6.659a3.136,3.136,0,0,0,.854,1.2,5.335,5.335,0,0,0,1.272.832,6.059,6.059,0,0,0,1.41.462,7.116,7.116,0,0,0,1.365.139,5.608,5.608,0,0,0,4.738-1.947,8.2,8.2,0,0,0,1.5-5.146v-1.066a8.672,8.672,0,0,1-3.122,2.027,10.632,10.632,0,0,1-3.812.676,10.4,10.4,0,0,1-4.44-.969,11.421,11.421,0,0,1-3.629-2.654,12.813,12.813,0,0,1-3.354-8.746,13.167,13.167,0,0,1,.9-4.869,11.884,11.884,0,0,1,6.383-6.646,12.1,12.1,0,0,1,16.275,6.649,13.191,13.191,0,0,1,.9,4.873Zm-6.1-10.674a7.258,7.258,0,0,0-.487-2.673,6.968,6.968,0,0,0-1.322-2.165,6.211,6.211,0,0,0-1.951-1.453,5.447,5.447,0,0,0-2.367-.529,5.637,5.637,0,0,0-2.366.507,5.916,5.916,0,0,0-1.951,1.428,6.982,6.982,0,0,0-1.322,2.166,7.388,7.388,0,0,0-.487,2.719,7.079,7.079,0,0,0,.487,2.649,6.752,6.752,0,0,0,1.322,2.119,6.06,6.06,0,0,0,1.951,1.406,5.636,5.636,0,0,0,2.366.506,5.416,5.416,0,0,0,2.367-.529,6.364,6.364,0,0,0,1.951-1.428,6.754,6.754,0,0,0,1.322-2.119A6.952,6.952,0,0,0,452.959,424.319Z" transform="translate(-421.609 -411.766)" fill="#51ae60"/>
          <path id="Path_6" data-name="Path 6" d="M495.77,436.179h-5.781v-2.52a8.718,8.718,0,0,1-3.213,2.26,10.536,10.536,0,0,1-4.045.769,10.393,10.393,0,0,1-4.439-.969,11.426,11.426,0,0,1-3.629-2.654,12.822,12.822,0,0,1-3.354-8.746,13.154,13.154,0,0,1,.9-4.869,11.878,11.878,0,0,1,6.383-6.646,12.1,12.1,0,0,1,16.275,6.646,13.153,13.153,0,0,1,.9,4.868Zm-6.1-11.86a7.275,7.275,0,0,0-.487-2.673,6.968,6.968,0,0,0-1.323-2.165,6.215,6.215,0,0,0-1.95-1.453,5.449,5.449,0,0,0-2.367-.529,5.643,5.643,0,0,0-2.367.507,5.921,5.921,0,0,0-1.951,1.428A6.971,6.971,0,0,0,477.9,421.6a7.389,7.389,0,0,0-.488,2.719,7.079,7.079,0,0,0,.488,2.649,6.742,6.742,0,0,0,1.322,2.119,6.066,6.066,0,0,0,1.951,1.406,5.641,5.641,0,0,0,2.367.506,5.419,5.419,0,0,0,2.367-.529,6.368,6.368,0,0,0,1.95-1.428,6.754,6.754,0,0,0,1.323-2.119A6.967,6.967,0,0,0,489.667,424.319Z" transform="translate(-431.731 -411.766)" fill="#51ae60"/>
          <path id="Path_7" data-name="Path 7" d="M509.872,422.382a11.437,11.437,0,0,1,.763-4.207,9.846,9.846,0,0,1,5.548-5.618,11.515,11.515,0,0,1,4.416-.809,11.928,11.928,0,0,1,4.463.786,9.243,9.243,0,0,1,5.41,5.549,12.33,12.33,0,0,1,.717,4.3v13.779h-6.1V422.243a7.571,7.571,0,0,0-.138-1.272,4.3,4.3,0,0,0-.6-1.5A3.769,3.769,0,0,0,523,418.221a4.8,4.8,0,0,0-2.4-.509,4.59,4.59,0,0,0-3.328,1.249,4.35,4.35,0,0,0-1.3,3.282v13.918h-6.1Z" transform="translate(-442.364 -411.748)" fill="#51ae60"/>
          <path id="Path_8" data-name="Path 8" d="M550.706,436.39h-6.1V412.578h2.355a3.747,3.747,0,0,1,3.747,3.747Z" transform="translate(-451.941 -411.977)" fill="#51ae60"/>
          <path id="Path_9" data-name="Path 9" d="M580.417,428.116a11.084,11.084,0,0,1-4.115,6.335,12.061,12.061,0,0,1-7.4,2.265,12.422,12.422,0,0,1-4.946-.97,11.692,11.692,0,0,1-3.885-2.658,12.433,12.433,0,0,1-2.544-3.954,12.719,12.719,0,0,1-.925-4.855,12.9,12.9,0,0,1,.925-4.878,12.379,12.379,0,0,1,2.544-3.977,11.992,11.992,0,0,1,3.885-2.68,12.152,12.152,0,0,1,4.946-.994,11.966,11.966,0,0,1,7.375,2.265,11.139,11.139,0,0,1,4.093,6.335h-6.519a6.071,6.071,0,0,0-1.965-2.1,5.344,5.344,0,0,0-5.341-.346,6.36,6.36,0,0,0-1.944,1.5,7.293,7.293,0,0,0-1.317,2.22,7.536,7.536,0,0,0-.485,2.705,7.217,7.217,0,0,0,.485,2.636,7.357,7.357,0,0,0,1.317,2.2,6.041,6.041,0,0,0,1.944,1.48,5.565,5.565,0,0,0,5.409-.369,5.472,5.472,0,0,0,1.942-2.15Z" transform="translate(-455.251 -411.748)" fill="#51ae60"/>
        </g>
      </g>
      <path id="Path_10" data-name="Path 10" d="M374.176,382.4a32.149,32.149,0,0,1-32.119,31.383,31.014,31.014,0,0,1-18.495-6.1c0,.156-.011.31-.011.466a31.738,31.738,0,0,0,31.492,31.892,32.148,32.148,0,0,0,32.134-31.973A31.816,31.816,0,0,0,374.176,382.4Z" transform="translate(-241.617 -349.883)" fill="url(#linear-gradient-2)"/>
      <path id="Path_11" data-name="Path 11" d="M351.575,387.963" transform="translate(-249.344 -351.417)" fill="none" stroke="#0c3f3c" stroke-miterlimit="10" stroke-width="4.313"/>
      <path id="Path_12" data-name="Path 12" d="M374.27,380.015a31.878,31.878,0,0,0-18.972-6.228,31.471,31.471,0,0,0-31.642,31.507,31.009,31.009,0,0,0,18.495,6.1A32.148,32.148,0,0,0,374.27,380.015Z" transform="translate(-241.645 -347.508)" fill="#10443f"/>
      <g id="Group_6" data-name="Group 6" transform="translate(81.99 26.474)">
        <g id="Group_5" data-name="Group 5" clip-path="url(#clip-path)">
          <line id="Line_1" data-name="Line 1" y1="11.776" x2="4.608" transform="translate(36.585 1.14)" fill="none" stroke="#61b14a" stroke-linecap="round" stroke-linejoin="round" stroke-width="1"/>
          <line id="Line_2" data-name="Line 2" y1="19.123" x2="6.063" transform="translate(24.392 -0.318)" fill="none" stroke="#61b14a" stroke-linecap="round" stroke-linejoin="round" stroke-width="1"/>
          <line id="Line_3" data-name="Line 3" y1="26.117" x2="8.081" transform="translate(11.93 -1.083)" fill="none" stroke="#61b14a" stroke-linecap="round" stroke-linejoin="round" stroke-width="1"/>
          <line id="Line_4" data-name="Line 4" y1="24.311" x2="6.172" transform="translate(3.582 5.539)" fill="none" stroke="#61b14a" stroke-linecap="round" stroke-linejoin="round" stroke-width="1"/>
          <line id="Line_5" data-name="Line 5" x2="12.227" y2="3.229" transform="translate(36.252 13.004)" fill="none" stroke="#61b14a" stroke-linecap="round" stroke-linejoin="round" stroke-width="1"/>
          <line id="Line_6" data-name="Line 6" x2="19.477" y2="6.492" transform="translate(24.426 19.043)" fill="none" stroke="#61b14a" stroke-linecap="round" stroke-linejoin="round" stroke-width="1"/>
          <line id="Line_7" data-name="Line 7" x2="23.632" y2="7.921" transform="translate(11.831 25.405)" fill="none" stroke="#61b14a" stroke-linecap="round" stroke-linejoin="round" stroke-width="1"/>
          <line id="Line_8" data-name="Line 8" x2="19.73" y2="7.878" transform="translate(3.365 30.045)" fill="none" stroke="#61b14a" stroke-linecap="round" stroke-linejoin="round" stroke-width="1"/>
          <line id="Line_9" data-name="Line 9" y1="25.279" x2="50.614" transform="translate(0 5.911)" fill="none" stroke="#61b14a" stroke-linecap="round" stroke-linejoin="round" stroke-width="1"/>
        </g>
      </g>
    </g>
    <g id="Group_8" data-name="Group 8" transform="translate(346.963 345.412)">
      <path id="Path_14" data-name="Path 14" d="M398.949,348.423h2.4a3.708,3.708,0,0,1,3.707,3.707V369.6q0,2.544,1.145,3.538a4.658,4.658,0,0,0,3.433.855v5.548a11.735,11.735,0,0,1-4.624-.323,7.931,7.931,0,0,1-3.33-1.919,8.46,8.46,0,0,1-2.034-3.282,13.162,13.162,0,0,1-.694-4.416Z" transform="translate(-398.949 -348.423)" fill="#137f7a"/>
      <path id="Path_15" data-name="Path 15" d="M437.607,374.568a11.045,11.045,0,0,1-4.048,5.9,12.066,12.066,0,0,1-7.466,2.242,11.762,11.762,0,0,1-4.764-.97,12.411,12.411,0,0,1-7.445-11.468,12.592,12.592,0,0,1,.95-4.878,12.266,12.266,0,0,1,2.612-3.977,12.675,12.675,0,0,1,3.883-2.68,11.508,11.508,0,0,1,4.764-1,12.4,12.4,0,0,1,4.069.671,11.258,11.258,0,0,1,3.49,1.942,11.577,11.577,0,0,1,2.634,3.121,12.54,12.54,0,0,1,1.5,4.254l-16.83,7.074a6.6,6.6,0,0,0,2.218,1.873,6.144,6.144,0,0,0,2.867.671,6.507,6.507,0,0,0,2.867-.671,4.844,4.844,0,0,0,2.173-2.1Zm-6.845-9.34a5.663,5.663,0,0,0-2.034-1.572,6.311,6.311,0,0,0-2.683-.555,6.148,6.148,0,0,0-4.508,1.919,7.181,7.181,0,0,0-1.387,2.15,7.639,7.639,0,0,0-.578,2.774Z" transform="translate(-403.068 -350.991)" fill="#137f7a"/>
    </g>
    <circle id="Ellipse_1" data-name="Ellipse 1" cx="3.065" cy="3.065" r="3.065" transform="translate(452.284 382.221)" fill="#51ae60"/>
  </g>
</svg>
