<?xml version="1.0" standalone="no"?>
<!DOCTYPE svg PUBLIC "-//W3C//DTD SVG 20010904//EN"
 "http://www.w3.org/TR/2001/REC-SVG-20010904/DTD/svg10.dtd">
<svg version="1.0" xmlns="http://www.w3.org/2000/svg"
 width="94.000000pt" height="94.000000pt" viewBox="0 0 94.000000 94.000000"
 preserveAspectRatio="xMidYMid meet">
<metadata>
Created by potrace 1.11, written by Peter Selinger 2001-2013
</metadata>
<g transform="translate(0.000000,94.000000) scale(0.100000,-0.100000)"
fill="#000000" stroke="none">
<path d="M303 929 c-24 -6 -43 -15 -43 -20 0 -6 -4 -8 -8 -5 -11 6 -89 -57
-120 -97 -103 -136 -93 -326 24 -457 12 -14 27 -51 34 -83 19 -95 95 -190 190
-239 38 -19 60 -23 140 -23 83 0 102 4 150 27 54 26 131 98 159 148 64 114 47
287 -39 390 -26 32 -41 62 -49 101 -18 87 -99 196 -170 229 -14 7 -34 17 -44
22 -28 14 -176 19 -224 7z"/>
</g>
</svg>
