<?xml version="1.0" encoding="UTF-8" standalone="no"?>
<svg
   xmlns:dc="http://purl.org/dc/elements/1.1/"
   xmlns:cc="http://creativecommons.org/ns#"
   xmlns:rdf="http://www.w3.org/1999/02/22-rdf-syntax-ns#"
   xmlns:svg="http://www.w3.org/2000/svg"
   xmlns="http://www.w3.org/2000/svg"
   xmlns:sodipodi="http://sodipodi.sourceforge.net/DTD/sodipodi-0.dtd"
   xmlns:inkscape="http://www.inkscape.org/namespaces/inkscape"
   width="26.674"
   height="25.114"
   viewBox="0 0 26.674 25.114"
   version="1.1"
   id="svg3727"
   sodipodi:docname="heart.svg"
   inkscape:version="0.92.4 (5da689c313, 2019-01-14)">
  <metadata
     id="metadata3733">
    <rdf:RDF>
      <cc:Work
         rdf:about="">
        <dc:format>image/svg+xml</dc:format>
        <dc:type
           rdf:resource="http://purl.org/dc/dcmitype/StillImage" />
      </cc:Work>
    </rdf:RDF>
  </metadata>
  <defs
     id="defs3731" />
  <sodipodi:namedview
     pagecolor="#ffffff"
     bordercolor="#666666"
     borderopacity="1"
     objecttolerance="10"
     gridtolerance="10"
     guidetolerance="10"
     inkscape:pageopacity="0"
     inkscape:pageshadow="2"
     inkscape:window-width="1366"
     inkscape:window-height="705"
     id="namedview3729"
     showgrid="false"
     inkscape:zoom="21.342677"
     inkscape:cx="4.0129587"
     inkscape:cy="12.557"
     inkscape:window-x="-8"
     inkscape:window-y="-8"
     inkscape:window-maximized="1"
     inkscape:current-layer="favorite" />
  <g
     id="favorite-heart-button"
     transform="translate(1,-19.4)">
    <g
       id="favorite"
       transform="translate(0,20.4)"
       style="display:inline">
      <path
         style="color:#000000;font-style:normal;font-variant:normal;font-weight:normal;font-stretch:normal;font-size:medium;line-height:normal;font-family:sans-serif;font-variant-ligatures:normal;font-variant-position:normal;font-variant-caps:normal;font-variant-numeric:normal;font-variant-alternates:normal;font-feature-settings:normal;text-indent:0;text-align:start;text-decoration:none;text-decoration-line:none;text-decoration-style:solid;text-decoration-color:#000000;letter-spacing:normal;word-spacing:normal;text-transform:none;writing-mode:lr-tb;direction:ltr;text-orientation:mixed;dominant-baseline:auto;baseline-shift:baseline;text-anchor:start;white-space:normal;shape-padding:0;clip-rule:nonzero;display:inline;overflow:visible;visibility:visible;opacity:1;isolation:auto;mix-blend-mode:normal;color-interpolation:sRGB;color-interpolation-filters:linearRGB;solid-color:#000000;solid-opacity:1;vector-effect:none;fill:#0cb69b;fill-opacity:1;fill-rule:nonzero;stroke:none;stroke-width:2;stroke-linecap:butt;stroke-linejoin:miter;stroke-miterlimit:4;stroke-dasharray:none;stroke-dashoffset:0;stroke-opacity:1;color-rendering:auto;image-rendering:auto;shape-rendering:auto;text-rendering:auto;enable-background:accumulate"
         d="m 6.7949219,-0.999609 c -4.3155835,-0.06018 -7.8507083,3.475959 -7.79296878,7.791015 0.001894,2.639757 1.19728897,5.007841 3.12499998,7.353516 1.9249581,2.342325 4.6001833,4.730059 7.8007813,7.560547 0.00712,0.0063 0.01241,0.01128 0.019531,0.01758 l 2.3906256,2.390625 0.707031,-0.707031 1.703125,-1.705079 c 3.19951,-2.830527 5.874331,-5.217349 7.798828,-7.558593 1.927699,-2.34514 3.123106,-4.711807 3.125,-7.351563 0.05774,-4.315056 -3.477385,-7.851192 -7.792969,-7.791015 H 17.875 C 15.775659,-0.976217 13.859299,-0.0483 12.335938,1.363674 10.812719,-0.04764 8.8976387,-0.976224 6.7988281,-0.999609 Z m -0.023437,2 h 0.00195 c 1.849913,0.01976 3.6013071,0.835084 4.8046871,2.240234 L 12.337888,4.129297 13.0957,3.240625 c 1.20338,-1.40515 2.954775,-2.220478 4.804688,-2.240234 h 0.002 0.002 c 3.218995,-0.04654 5.816071,2.550535 5.769531,5.769531 v 0.0078 0.0078 c 0,2.045721 -0.899851,3.932138 -2.671875,6.087891 -1.772024,2.155752 -4.394574,4.51429 -7.599609,7.349609 l -0.02344,0.01953 -1.042968,1.042969 -1.041016,-1.041016 -0.02344,-0.02148 C 8.0665448,17.388811 5.4438871,15.031608 3.671875,12.875391 1.8998629,10.719173 1,8.831268 1,6.785547 v -0.0078 -0.0078 C 0.95346,3.550951 3.5524888,0.953876 6.7714844,1.000416 Z"
         id="Path_568"
         inkscape:connector-curvature="0" />
    </g>
  </g>
</svg>
