<svg id="instagram" xmlns="http://www.w3.org/2000/svg" width="21.925" height="21.925" viewBox="0 0 21.925 21.925">
  <g id="Group_31" data-name="Group 31">
    <g id="Group_30" data-name="Group 30">
      <path id="Path_127" data-name="Path 127" d="M15.073,0H6.851A6.852,6.852,0,0,0,0,6.851v8.222a6.852,6.852,0,0,0,6.851,6.851h8.222a6.852,6.852,0,0,0,6.851-6.851V6.851A6.852,6.852,0,0,0,15.073,0Zm4.8,15.073a4.8,4.8,0,0,1-4.8,4.8H6.851a4.8,4.8,0,0,1-4.8-4.8V6.851a4.8,4.8,0,0,1,4.8-4.8h8.222a4.8,4.8,0,0,1,4.8,4.8Z" fill="#fff"/>
    </g>
  </g>
  <g id="Group_33" data-name="Group 33" transform="translate(5.481 5.481)">
    <g id="Group_32" data-name="Group 32">
      <path id="Path_128" data-name="Path 128" d="M133.481,128a5.481,5.481,0,1,0,5.481,5.481A5.481,5.481,0,0,0,133.481,128Zm0,8.907a3.426,3.426,0,1,1,3.426-3.426A3.431,3.431,0,0,1,133.481,136.907Z" transform="translate(-128 -128)" fill="#fff"/>
    </g>
  </g>
  <g id="Group_35" data-name="Group 35" transform="translate(16.124 4.34)">
    <g id="Group_34" data-name="Group 34">
      <circle id="Ellipse_1" data-name="Ellipse 1" cx="0.73" cy="0.73" r="0.73" fill="#fff"/>
    </g>
  </g>
</svg>
