<svg xmlns="http://www.w3.org/2000/svg" xmlns:xlink="http://www.w3.org/1999/xlink" width="23" height="23" viewBox="0 0 23 23">
  <defs>
    <clipPath id="clip-path">
      <rect width="23" height="23" fill="none"/>
    </clipPath>
  </defs>
  <g id="shopping-cart" clip-path="url(#clip-path)">
    <g id="Group_19" data-name="Group 19">
      <path id="Path_12" data-name="Path 12" d="M22.8,5.228a.9.9,0,0,0-.7-.332H5.828l-.067-.612,0-.02A4.916,4.916,0,0,0,.9,0a.9.9,0,0,0,0,1.8A3.114,3.114,0,0,1,3.976,4.489L5.044,14.3a2.7,2.7,0,0,0-1.585,2.456c0,.008,0,.015,0,.022s0,.015,0,.022a2.7,2.7,0,0,0,2.7,2.7H6.52a2.65,2.65,0,1,0,5.019,0h3.876a2.651,2.651,0,1,0,2.509-1.8H6.154a.9.9,0,0,1-.9-.9c0-.008,0-.015,0-.022s0-.015,0-.022a.9.9,0,0,1,.9-.9h11.47a4.114,4.114,0,0,0,3.729-2.514.9.9,0,0,0-1.645-.722,2.349,2.349,0,0,1-2.083,1.439H6.825l-.8-7.367H21L20.557,8.8a.9.9,0,1,0,1.759.367l.665-3.189A.9.9,0,0,0,22.8,5.228ZM17.924,19.5a.854.854,0,1,1-.854.854A.854.854,0,0,1,17.924,19.5Zm-8.895,0a.854.854,0,1,1-.854.854A.854.854,0,0,1,9.029,19.5Z" fill="#fff"/>
    </g>
  </g>
</svg>
