<?xml version="1.0" encoding="UTF-8" standalone="no"?>
<!-- Generator: Adobe Illustrator 19.0.0, SVG Export Plug-In . SVG Version: 6.00 Build 0)  -->

<svg
   xmlns:dc="http://purl.org/dc/elements/1.1/"
   xmlns:cc="http://creativecommons.org/ns#"
   xmlns:rdf="http://www.w3.org/1999/02/22-rdf-syntax-ns#"
   xmlns:svg="http://www.w3.org/2000/svg"
   xmlns="http://www.w3.org/2000/svg"
   xmlns:sodipodi="http://sodipodi.sourceforge.net/DTD/sodipodi-0.dtd"
   xmlns:inkscape="http://www.inkscape.org/namespaces/inkscape"
   version="1.1"
   id="Capa_1"
   x="0px"
   y="0px"
   viewBox="0 0 512 512"
   style="enable-background:new 0 0 512 512;"
   xml:space="preserve"
   sodipodi:docname="user.svg"
   inkscape:version="0.92.4 (5da689c313, 2019-01-14)"><metadata
   id="metadata6094"><rdf:RDF><cc:Work
       rdf:about=""><dc:format>image/svg+xml</dc:format><dc:type
         rdf:resource="http://purl.org/dc/dcmitype/StillImage" /><dc:title></dc:title></cc:Work></rdf:RDF></metadata><defs
   id="defs6092" /><sodipodi:namedview
   pagecolor="#ffffff"
   bordercolor="#666666"
   borderopacity="1"
   objecttolerance="10"
   gridtolerance="10"
   guidetolerance="10"
   inkscape:pageopacity="0"
   inkscape:pageshadow="2"
   inkscape:window-width="1366"
   inkscape:window-height="705"
   id="namedview6090"
   showgrid="false"
   inkscape:zoom="0.4609375"
   inkscape:cx="-158.37288"
   inkscape:cy="256"
   inkscape:window-x="-8"
   inkscape:window-y="-8"
   inkscape:window-maximized="1"
   inkscape:current-layer="Capa_1" />
<g
   id="g6057"
   style="display:inline;fill:#ffffff">
	<g
   id="g6055"
   style="fill:#ffffff">
		<path
   d="M 437.02,330.98 C 409.137,303.098 375.949,282.457 339.739,269.962 378.521,243.251 404,198.548 404,148 404,66.393 337.607,0 256,0 174.393,0 108,66.393 108,148 c 0,50.548 25.479,95.251 64.262,121.962 -36.21,12.495 -69.398,33.136 -97.281,61.018 C 26.629,379.333 0,443.62 0,512 h 40 c 0,-119.103 96.897,-216 216,-216 119.103,0 216,96.897 216,216 h 40 C 512,443.62 485.371,379.333 437.02,330.98 Z M 256,256 C 196.449,256 148,207.552 148,148 148,88.448 196.449,40 256,40 c 59.551,0 108,48.448 108,108 0,59.552 -48.449,108 -108,108 z"
   id="path6053"
   inkscape:connector-curvature="0"
   style="display:inline;fill:#ffffff" />
	</g>
</g>















</svg>